<svg xmlns="http://www.w3.org/2000/svg" width="766.744" height="450.283" viewBox="124.949 266.745 766.744 450.283"><defs><radialGradient id="b" r="100%" cx="50%" cy="50%"><stop offset="0%" stop-color="#df00afc9"/><stop offset="100%" stop-color="#d220ab54"/></radialGradient><clipPath id="a"><path fill="currentColor" d="M829.5 584.5Q701 669 619 689.5t-165 27q-83 6.5-122.5-67T175 457.5Q58 339 214.5 307.5t242-39.5q85.5-8 156.5 35t208 120q137 77 8.5 161.5Z"/></clipPath></defs><g clip-path="url(#a)"><path fill="url(#b)" d="M829.5 584.5Q701 669 619 689.5t-165 27q-83 6.5-122.5-67T175 457.5Q58 339 214.5 307.5t242-39.5q85.5-8 156.5 35t208 120q137 77 8.5 161.5Z"/></g></svg>